<svg width="62" height="65" viewBox="0 0 62 65" fill="none" xmlns="http://www.w3.org/2000/svg">
<path d="M60.5858 20.0545L51.2218 17.5895C48.1346 16.7776 45.7244 14.3674 44.9124 11.2825L42.4487 1.91862C42.2788 1.26952 41.6925 0.818176 41.0225 0.818176C40.3513 0.818176 39.765 1.26952 39.5941 1.91862L37.1304 11.2826C36.3185 14.3675 33.9082 16.7776 30.821 17.5896L21.457 20.0546C20.8079 20.2255 20.3566 20.8106 20.3566 21.4819C20.3566 22.1532 20.8079 22.7382 21.457 22.9093L30.821 25.3742C33.9082 26.185 36.3185 28.5963 37.1304 31.6812L39.5941 41.0453C39.765 41.6944 40.3514 42.1457 41.0225 42.1457C41.6925 42.1457 42.2788 41.6944 42.4487 41.0453L44.9123 31.6812C45.7243 28.5963 48.1345 26.185 51.2217 25.3742L60.5857 22.9093C61.2347 22.7383 61.6861 22.1532 61.6861 21.4819C61.6861 20.8106 61.2348 20.2255 60.5858 20.0545Z" fill="white"/>
<path d="M24.9815 50.686L19.2607 49.1808C17.3751 48.6852 15.9024 47.2125 15.4069 45.3282L13.9005 39.6074C13.7969 39.2095 13.4397 38.9352 13.0291 38.9352C12.6197 38.9352 12.2615 39.2096 12.1579 39.6074L10.6526 45.3282C10.1559 47.2125 8.68327 48.6852 6.79771 49.1808L1.07691 50.686C0.681384 50.7907 0.404663 51.149 0.404663 51.5584C0.404663 51.9679 0.681508 52.3262 1.07691 52.4307L6.79771 53.936C8.68327 54.4315 10.156 55.9042 10.6526 57.7887L12.1579 63.5095C12.2613 63.9074 12.6197 64.1818 13.0291 64.1818C13.4397 64.1818 13.7969 63.9074 13.9005 63.5095L15.4069 57.7887C15.9024 55.9042 17.3751 54.4315 19.2607 53.936L24.9815 52.4307C25.377 52.3262 25.6537 51.9679 25.6537 51.5584C25.6538 51.149 25.377 50.7907 24.9815 50.686Z" fill="white"/>
</svg>
